<?xml version="1.0" standalone="no"?>
<!DOCTYPE svg PUBLIC "-//W3C//DTD SVG 20010904//EN"
 "http://www.w3.org/TR/2001/REC-SVG-20010904/DTD/svg10.dtd">
<svg version="1.0" xmlns="http://www.w3.org/2000/svg"
 width="195.000000pt" height="107.000000pt" viewBox="0 0 195.000000 107.000000"
 preserveAspectRatio="xMidYMid meet">

<g transform="translate(0.000000,107.000000) scale(0.100000,-0.100000)"
fill="#000000" stroke="none">
<path d="M40 1023 c0 -5 17 -17 38 -26 36 -16 60 -48 76 -99 7 -25 26 -23 26
2 0 28 -23 70 -52 97 -25 24 -88 42 -88 26z"/>
<path d="M1705 804 c-338 -71 -826 -201 -832 -221 -2 -6 29 -24 73 -40 49 -17
92 -41 114 -63 35 -33 38 -41 64 -174 15 -77 29 -142 32 -145 2 -3 38 28 79
69 l74 73 33 -26 c18 -15 48 -39 65 -53 36 -29 59 -26 72 9 12 32 111 193 184
302 34 50 108 136 164 193 57 56 103 105 103 107 0 11 -76 1 -225 -31z m65
-92 c-90 -98 -182 -227 -261 -364 -34 -60 -63 -108 -65 -108 -3 0 -54 35 -114
77 l-109 77 103 76 c57 42 170 117 252 165 82 48 174 103 204 121 30 18 56 34
58 34 2 0 -29 -35 -68 -78z m-200 -1 c-187 -81 -377 -169 -427 -198 l-42 -24
-38 24 c-21 14 -62 33 -90 43 -51 17 -69 34 -37 34 8 0 83 18 167 41 190 51
555 138 582 138 11 0 -41 -26 -115 -58z m75 -1 c-3 -5 -11 -10 -16 -10 -6 0
-7 5 -4 10 3 6 11 10 16 10 6 0 7 -4 4 -10z m-35 -20 c0 -5 -2 -10 -4 -10 -3
0 -8 5 -11 10 -3 6 -1 10 4 10 6 0 11 -4 11 -10z m-30 -9 c0 -6 -4 -13 -10
-16 -5 -3 -10 1 -10 9 0 9 5 16 10 16 6 0 10 -4 10 -9z m-40 -26 c0 -8 -4 -15
-10 -15 -5 0 -10 7 -10 15 0 8 5 15 10 15 6 0 10 -7 10 -15z m-40 -17 c0 -18
-2 -20 -9 -8 -6 8 -7 18 -5 22 9 14 14 9 14 -14z m-32 -20 c-5 -32 -28 -35
-28 -4 0 17 5 26 16 26 10 0 14 -7 12 -22z m-45 -17 c5 -22 -1 -33 -14 -25
-12 7 -12 44 0 44 5 0 11 -9 14 -19z m-38 -29 c0 -31 -19 -28 -23 4 -3 18 0
25 10 22 7 -3 13 -14 13 -26z m-35 -35 c0 -10 -4 -15 -10 -12 -5 3 -10 18 -10
33 0 21 2 24 10 12 5 -8 10 -23 10 -33z m-30 -16 c0 -32 -6 -24 -14 19 -4 25
-3 31 4 20 5 -8 10 -26 10 -39z m-30 -13 c0 -49 -5 -47 -13 5 -3 20 -2 37 4
37 5 0 9 -19 9 -42z m-30 -3 c0 -19 0 -38 1 -42 0 -4 -4 -9 -10 -11 -7 -2 -11
14 -11 42 0 25 5 46 10 46 6 0 10 -16 10 -35z m-37 -27 c5 -39 3 -58 -7 -47
-8 9 -14 89 -6 89 4 0 10 -19 13 -42z m-33 -12 c0 -19 3 -41 6 -50 3 -9 2 -16
-4 -16 -6 0 -12 23 -14 50 -1 28 0 50 5 50 4 0 7 -15 7 -34z m-26 -43 c4 -38
9 -79 11 -93 3 -14 -1 -7 -9 16 -19 56 -30 144 -18 144 5 0 12 -30 16 -67z
m79 -149 c-27 -23 -50 -40 -52 -39 -2 2 0 36 4 74 l7 71 44 -32 44 -32 -47
-42z m-74 -29 l0 -20 -9 20 c-5 11 -9 29 -9 40 l0 20 9 -20 c5 -11 9 -29 9
-40z"/>
<path d="M177 793 c-8 -16 -7 -143 2 -143 14 0 21 28 21 85 0 48 -12 78 -23
58z"/>
<path d="M468 642 c-30 -6 -20 -22 13 -22 37 0 99 -56 99 -89 0 -12 6 -21 15
-21 29 0 8 66 -33 103 -22 20 -69 35 -94 29z"/>
<path d="M357 571 c-42 -47 -62 -105 -53 -155 10 -53 26 -44 26 15 0 59 23
114 56 136 23 15 33 43 15 43 -5 0 -25 -18 -44 -39z"/>
<path d="M145 541 c-14 -23 35 -161 57 -161 16 0 16 18 -2 46 -11 16 -23 50
-26 77 -6 45 -16 58 -29 38z"/>
<path d="M577 421 c-15 -22 -40 -47 -57 -57 -27 -17 -41 -44 -22 -44 28 0 122
98 122 127 0 24 -17 13 -43 -26z"/>
<path d="M260 361 c0 -42 154 -100 167 -63 3 8 -5 12 -24 12 -31 0 -107 32
-117 49 -9 13 -26 15 -26 2z"/>
<path d="M350 239 c0 -37 68 -108 118 -123 35 -11 26 9 -19 38 -22 15 -50 43
-61 62 -20 34 -38 45 -38 23z"/>
<path d="M1027 151 c-33 -13 -23 -26 18 -22 48 4 62 11 44 22 -16 10 -37 10
-62 0z"/>
<path d="M871 106 c-36 -13 -54 -36 -29 -36 25 0 108 32 108 41 0 12 -38 10
-79 -5z"/>
<path d="M605 91 c-9 -15 38 -31 91 -31 32 0 44 4 44 15 0 11 -12 15 -49 15
-27 0 -56 3 -64 6 -8 3 -18 1 -22 -5z"/>
</g>
</svg>
